<?xml version="1.0" encoding="utf-8"?>
<!-- Generator: Adobe Illustrator 22.1.0, SVG Export Plug-In . SVG Version: 6.00 Build 0)  -->
<svg version="1.1" id="Layer_1" xmlns="http://www.w3.org/2000/svg" xmlns:xlink="http://www.w3.org/1999/xlink" x="0px" y="0px"
	 viewBox="0 0 465.3 85.5" style="enable-background:new 0 0 465.3 85.5;" xml:space="preserve">
<style type="text/css">
	.st0{fill:#575757;}
</style>
<title>Asset 1@3x-82</title>
<g id="Layer_2_1_">
	<g id="Layer_1-2">
		<path class="st0" d="M316,11.7c3.6,3.2,6.2,7.3,7.4,12c0.6,2.5,0.9,5.1,0.9,7.7c0,2.3-0.2,4.7-0.8,6.9c-1,3.5-2.7,6.6-5.1,9.3
			l-0.5,0.6l-0.1,0.1l-0.5,0.5l-0.3,0.3c-0.2,0.2-0.4,0.5-0.7,0.7c-0.3,0.3-0.6,0.5-0.9,0.7c0.4-0.2,0.7-0.4,1-0.7
			c0.5-0.4,1.1-1,1.8-1.7c0.3-0.3,0.6-0.6,1-1s0.8-0.8,1.3-1.3c1.7-1.9,4.4-5,5.6-9.3c0.6-2.3,0.9-4.7,1-7.1
			c0.1-2.7-0.2-5.3-0.8-7.9c-1.2-4.8-3.8-9.2-7.5-12.5l-2.2-1.7c-5.3-3.9-11.9-5.9-19.7-5.9h-30.2c-0.3,0-0.5,0.2-0.5,0.5v2.7h28.7
			C303.6,4.5,310.6,6.9,316,11.7z"/>
		<path class="st0" d="M38.2,38.5c-2.5,2.2-6.2,3.3-11.1,3.3H21V16.9c0-0.4-0.3-0.7-0.7-0.7h0h-2c-0.3,0-0.5,0.2-0.5,0.5
			c0,0,0,0,0,0v28.2h5.5c1.7,0,3.3-0.1,5-0.4c1.7-0.2,3.3-0.8,4.7-1.5c1.1-0.6,2.1-1.3,3-2.1l0,0l0,0c0.2-0.2,0.5-0.4,0.7-0.7
			l0.3-0.3l0.1-0.1l0,0c0.2-0.2,0.4-0.4,0.6-0.6c0.5-0.4,1-0.9,1.4-1.5L38.7,38C38.5,38.2,38.4,38.3,38.2,38.5z"/>
		<path class="st0" d="M244.8,22c-2-3.6-4.4-6.9-7.3-9.8c-2.9-2.8-6.3-5.3-9.8-7.3c-3.5-1.8-7.3-3.2-11.1-4c-3.6-0.7-7.3-1-11-0.8
			c-8.4,0.5-16.5,3.5-23.2,8.5c-1.4,1.1-2.4,2-3.1,2.7l-1.1,1l-1,1l-1,1l0.4-0.4l0,0l0.7-0.6c0.7-0.6,1.8-1.5,3.2-2.6
			c4.1-2.8,8.7-5,13.5-6.3c3.1-0.9,6.4-1.4,9.6-1.5c3.6-0.1,7.2,0.3,10.8,1c3.8,0.9,7.4,2.2,10.8,4c3.5,2,6.7,4.4,9.5,7.1
			c2.8,2.8,5.2,6,7.1,9.5c1.8,3.4,3.1,7,4,10.8c0.2,0.9,0.3,1.8,0.5,2.7c0.2,0.9,0.3,1.8,0.3,2.7c0.1,0.9,0.1,1.8,0.2,2.7
			s0,1.8,0,2.6c-0.1,3.2-0.7,6.5-1.5,9.6c-1.6,5.8-3.7,10.2-5.7,13.1c-1,1.4-1.9,2.5-2.6,3.2l-1,1.1l1-1l1-1l1-1
			c1-1,1.9-2.1,2.7-3.2c2.8-3.9,4.9-8.3,6.2-13c1-3.2,1.5-6.4,1.8-9.7c0.2-3.7-0.1-7.4-0.8-11C248,29.3,246.7,25.6,244.8,22z
			 M184.5,7.5l-0.6,0.4l-0.5,0.4l-0.9,0.6l0.1-0.1C183.1,8.4,183.8,7.9,184.5,7.5z"/>
		<path class="st0" d="M287,54.7h-2.6c-0.3,0-0.5,0.2-0.5,0.5v4.7l0,0v20l0,0v5.2h2.6c0.3,0,0.5-0.2,0.5-0.5v-2.1l0,0V68.1l0,0V54.7
			z"/>
		<path class="st0" d="M304.5,37c-2,1.7-4.9,2.6-8.6,2.6H287V17.9v-1.4h-2.7c-0.3,0-0.5,0.2-0.5,0.5v4.7l0,0v7.6l0,0v13.4
			c0,0,11.6,0,11.7,0l0,0c9.4,0,10.3-7.2,10.3-7.2c-0.3,0.4-0.7,0.9-1.1,1.2L304.5,37z"/>
		<path class="st0" d="M367.9,1.4h-19c-0.3,0-0.5,0.2-0.5,0.5c0,0,0,0,0,0v2.7h17.5c0.4,0,0.7,0.3,0.7,0.7c0,0,0,0,0,0l-0.8,79.8
			h2.6c0.3,0,0.5-0.2,0.5-0.5c0,0,0,0,0,0v-2.8l0.8-78.6C369.7,2.2,368.9,1.4,367.9,1.4z"/>
		<path class="st0" d="M431.2,50h-14.9c-0.2,0-0.4-0.1-0.6-0.3c-0.1-0.2-0.2-0.4-0.1-0.6l1.2-4l4-14.3l1.5-5.7l0,0l0.9-3.3
			c0.1-0.4-0.1-0.7-0.5-0.8l-0.2-0.1l0,0l-1.6-0.5l-0.6,2.5l0,0c0,0.1-0.1,0.3-0.1,0.4l-2.3,8.6c-1.1,4.1-2.5,9-4.2,14.7l-1.2,4
			c-0.2,0.6,0,1.2,0.3,1.7c0.4,0.5,0.9,0.7,1.5,0.8h17.6v-2.5C431.9,50.3,431.6,50,431.2,50z"/>
		<path class="st0" d="M409.6,66.3l-0.4-0.1l0,0l-1.4-0.4c-0.3-0.1-0.5,0.1-0.6,0.3l-0.8,2.5l-2.4,7.6l0,0l-0.8,2.6l0,0l-0.4,1.3
			l0,0l-0.3,1.1l-1.1,3.8l1.9,0.6c0.3,0.1,0.6-0.1,0.7-0.3c0,0,0,0,0,0l0.7-2.5l0,0l0.8-2.7l0,0l1.6-5.2l0,0L409.6,66.3L409.6,66.3z
			"/>
		<path class="st0" d="M127.5,34.6H98.2V3.1c0-1-0.8-1.7-1.7-1.7H78.1c-0.3,0-0.5,0.2-0.5,0.5c0,0,0,0,0,0v2.7h16.9
			c0.3,0,0.6,0.2,0.6,0.6v32.7h33.1v-2.5C128.2,34.9,127.9,34.6,127.5,34.6z"/>
		<path class="st0" d="M98.2,69.5v-19h-2.7c-0.3,0-0.5,0.2-0.5,0.5v29l0,0v5.2h2.7c0.3,0,0.5-0.2,0.5-0.5v-4.7l0,0L98.2,69.5z"/>
		<path class="st0" d="M147,73.3V3c0-0.9-0.8-1.7-1.7-1.7l0,0h-18.6c-0.3,0-0.5,0.2-0.5,0.5c0,0,0,0,0,0v2.7h17.1
			c0.3,0,0.6,0.3,0.6,0.6v74.9l0,0v5.2h2.7c0.3,0,0.5-0.2,0.5-0.5l0,0v-4.7l0,0L147,73.3z"/>
		<path class="st0" d="M52.2,9c-5.6-5.1-12.8-7.7-21.8-7.7H0.5C0.2,1.3,0,1.5,0,1.8c0,0,0,0,0,0v2.7h28.2c8.7,0,15.8,2.5,21.2,7.3
			c1.6,1.4,2.9,2.9,4.1,4.6c1.6,2.3,2.7,4.9,3.4,7.6c0.6,2.5,1,5.2,1,7.8c0,2.4-0.2,4.7-0.8,7c-0.8,3.5-2.3,6.7-4.4,9.6
			c-0.5,0.6-0.9,1-1.3,1.4L51,50.1c-0.2,0.2-0.3,0.3-0.5,0.5l-0.8,0.7l0,0c0.8-0.6,1.5-1.3,2.2-2c0.3-0.3,0.7-0.7,1-1
			c5.1-4.8,7.7-11.2,7.7-19C60.6,20.8,57.8,14.1,52.2,9z"/>
		<path class="st0" d="M182.2,41.7c0-6.4,2.4-12.5,6.7-17.2l-0.6,0.6l-0.4,0.5l-0.6,0.5l-0.4,0.5l-0.6,0.5c-0.4,0.4-0.9,1-1.6,1.9
			c-1.9,2.3-3.4,5-4.4,7.9c-0.6,1.9-1,4-1.2,6c-0.1,2.4,0,4.8,0.5,7.2c0.5,2.4,1.4,4.7,2.5,6.8c1.2,2.2,2.7,4.3,4.4,6.1
			c3.5,3.5,8,5.9,12.9,6.9c2.2,0.4,4.5,0.5,6.8,0.4c2-0.2,4.1-0.6,6-1.2c2.9-1,5.5-2.5,7.9-4.4c0.6-0.5,1.3-1.1,1.8-1.7l0.2-0.2
			c0.3-0.3,0.6-0.6,0.8-0.8l0.2-0.2c0.3-0.3,0.6-0.6,0.8-0.8l0.6-0.7c-10.3,9.4-26.2,8.7-35.6-1.5C184.5,54.2,182.2,48.1,182.2,41.7
			L182.2,41.7z"/>
		<path class="st0" d="M18.2,56.7c-0.3,0-0.5,0.2-0.5,0.5v27.9h2.7c0.3,0,0.5-0.2,0.5-0.5V56.7H18.2z"/>
		<path class="st0" d="M311.8,52.9l-2.2,1.5c-0.2,0.2-0.3,0.5-0.1,0.7l20,30l2.2-1.5c0.2-0.2,0.3-0.5,0.1-0.7L311.8,52.9z"/>
		<path class="st0" d="M465.3,83.4l-3.1-9.2l-1.4-4.1l-2.4-7.3l-1-3.1l0,0l-19-57.1c-0.3-0.8-1-1.3-1.8-1.3h-23.8
			c-0.3,0-0.5,0.2-0.5,0.5c0,0,0,0,0,0v2.7h22.3c0.3,0,0.6,0.2,0.7,0.5l22,66.2l0,0l1,3l2.2,6.6l0,0l1.4,4.2l0.5-0.2l0,0l2.6-0.9
			C465.2,84,465.4,83.7,465.3,83.4C465.3,83.4,465.3,83.4,465.3,83.4z"/>
	</g>
</g>
</svg>
